HIERARCHY
ROOT pelvis
{
  OFFSET 0 100 0
  CHANNELS 6 Xposition Yposition Zposition Zrotation Xrotation Yrotation
  JOINT pelvis_right_femur
  {
    OFFSET -10.78128 -3.44521 -0.5502486
    CHANNELS 3 Zrotation Xrotation Yrotation
    JOINT right_femur_tibia
    {
      OFFSET -0.8047443 -44.0398 -0.1307829
      CHANNELS 3 Zrotation Xrotation Yrotation
      JOINT right_tibia_foot
      {
        OFFSET 3.006224 -47.83518 -5
        CHANNELS 3 Zrotation Xrotation Yrotation
        End Site
        {
          OFFSET 0 -5 15
        }
      }
    }
  }
  JOINT pelvis_left_femur
  {
    OFFSET 10.78128 -3.44521 -0.5502486
    CHANNELS 3 Zrotation Xrotation Yrotation
    JOINT left_femur_tibia
    {
      OFFSET 0.8047443 -44.0398 -0.1307829
      CHANNELS 3 Zrotation Xrotation Yrotation
      JOINT left_tibia_foot
      {
        OFFSET -4.370144 -48.10324 -4.275266
        CHANNELS 3 Zrotation Xrotation Yrotation
        End Site
        {
          OFFSET 0 -5 15
        }
      }
    }
  }
  JOINT pelvis_spine1
  {
    OFFSET 0 6.468898 -3.129235
    CHANNELS 3 Zrotation Xrotation Yrotation
    JOINT spine1
    {
      OFFSET 0 23.15396 4.99043
      CHANNELS 3 Zrotation Xrotation Yrotation
      JOINT spine2
      {
        OFFSET 0 20.79997 -5.064912
        CHANNELS 3 Zrotation Xrotation Yrotation
        JOINT neck
        {
          OFFSET 0 14.38658 9.616178
          CHANNELS 3 Zrotation Xrotation Yrotation
          End Site
          {
            OFFSET 0 20 0
          }
        }
      }
      JOINT right_manubrium
      {
        OFFSET -5.722621 16.35077 3.967754
        CHANNELS 3 Zrotation Xrotation Yrotation
        JOINT right_clavicle
        {
          OFFSET -13.16364 1.694482 -4.693211
          CHANNELS 3 Zrotation Xrotation Yrotation
          JOINT right_humerus
          {
            OFFSET -28.5034 -0.3100689 -2.792744
            CHANNELS 3 Zrotation Xrotation Yrotation
            JOINT right_radius
            {
              OFFSET -25.15693 0.02248979 -1.271978
              CHANNELS 3 Zrotation Xrotation Yrotation
              End Site
              {
                OFFSET -15 0 0
              }
            }
          }
        }
      }
      JOINT left_manubrium
      {
        OFFSET 5.722621 16.35077 3.967754
        CHANNELS 3 Zrotation Xrotation Yrotation
        JOINT left_clavicle
        {
          OFFSET 13.16364 1.694482 -4.693211
          CHANNELS 3 Zrotation Xrotation Yrotation
          JOINT left_humerus
          {
            OFFSET 29.39168 -1.063119 -2.237045
            CHANNELS 3 Zrotation Xrotation Yrotation
            JOINT left_radius
            {
              OFFSET 24.59957 -0.9528479 0.9047498
              CHANNELS 3 Zrotation Xrotation Yrotation
              End Site
              {
                OFFSET 15 -0 -0
              }
            }
          }
        }
      }
    }
  }
}
MOTION
Frames: 7
Frame Time: 0.0416666666667
362.5039 102.5251 3025.203 0.9644076 -6.436569 9.450722 5.660554 7.555634 3.359475 -0 9.956423 -0 -5.789089 -11.86653 -2.751852 0.2722636 -15.58222 -5.060738 -0 40.63304 -0 -3.958762 -4.829009 17.60504 0.3323859 -1.86443 6.805334 -0.4221527 14.52701 -5.369958 1.694492 21.294 3.896894 1.273551 -19.09571 5.843705 -2.22651 -24.51507 12.11109 90.04613 17.79449 -13.06356 -0 0 18.87977 -26.10951 12.92263 14.68189 3.949575 -22.03616 -6.271538 -90.2311 15.09742 24.36523 0 0 -15.43545 6.063337 11.31492 6.041552
363.8947 101.8823 3030.997 0.940155 -6.171379 8.687491 5.063229 11.17985 2.627834 -0 9.038941 -0 -5.386279 -12.82193 -1.77685 1.002322 -19.38655 -4.340671 -0 31.05117 -0 -3.216275 -5.500297 18.18161 0.4333323 -1.962011 7.565369 -0.7893379 14.80057 -4.743615 1.678857 21.15751 3.662437 1.168307 -19.0711 5.63662 -2.328003 -25.89766 12.23422 88.99856 17.54038 -10.80407 -0 0 21.49997 -26.94401 12.99051 15.67984 3.623295 -21.22591 -6.059769 -91.82624 14.59035 27.5143 0 0 -12.68728 5.495671 11.28917 6.725545
365.4301 100.8099 3036.859 0.9877872 -6.008717 8.053488 4.431814 14.04172 2.112629 -0 9.554247 -0 -4.894829 -13.24358 -1.029915 1.43585 -22.18164 -3.898805 -0 22.77108 -0 -2.596164 -6.226705 18.69202 0.5054849 -2.0293 8.283222 -1.136114 15.01649 -4.152036 1.663446 21.02258 3.451448 1.077658 -19.01298 5.439283 -2.364621 -27.14208 12.34657 87.96694 17.3402 -8.668345 -0 0 23.97866 -27.71836 13.04503 16.62041 3.311245 -20.4159 -5.834565 -93.30949 14.12309 30.39446 0 0 -10.12421 4.836258 11.1701 7.523883
367.0703 99.55143 3042.785 1.122315 -6.068826 7.567705 3.786019 15.94261 1.923138 -0 11.9386 -0 -4.33306 -12.9182 -0.6738608 1.449211 -23.63868 -3.804469 -0 17.43809 -0 -2.293692 -6.802329 19.04571 0.535719 -2.056354 8.855274 -1.408571 15.14404 -3.68693 1.648962 20.90342 3.297039 1.016735 -18.92839 5.279027 -2.322146 -28.06105 12.4353 87.0801 17.24637 -6.971514 -0 0 25.95352 -28.32011 13.08861 17.36772 3.058469 -19.72456 -5.62935 -94.45641 13.80012 32.59056 0 0 -8.139501 4.170271 10.95752 8.336038
368.7793 98.3776 3048.809 1.349537 -6.400393 7.254363 3.103363 16.88479 2.017957 -0 16.25814 -0 -3.680167 -11.7033 -0.7562523 1.043335 -23.70326 -3.989379 -0 15.2978 -0 -2.402071 -7.197739 19.16344 0.5232846 -2.044826 9.211567 -1.570646 15.17692 -3.40947 1.636291 20.8123 3.217851 0.992541 -18.8344 5.175071 -2.212104 -28.54969 12.49172 86.43874 17.28341 -5.926043 -0 0 27.17912 -28.67739 13.12589 17.83053 2.897231 -19.24633 -5.475281 -95.12512 13.69149 33.85726 0 0 -6.984495 3.597914 10.68729 9.041011
370.5366 97.50839 3054.973 1.661109 -6.944916 7.145498 2.358802 16.94548 2.287031 -0 22.21113 -0 -2.918012 -9.665614 -1.214899 0.2900757 -22.52203 -4.376038 -0 15.44338 -0 -2.846231 -7.536462 19.05075 0.4792172 -2.0057 9.356737 -1.625562 15.13448 -3.314088 1.626047 20.75237 3.207481 1.000197 -18.74622 5.12724 -2.062579 -28.64419 12.51616 86.05797 17.43204 -5.517376 -0 0 27.67106 -28.80038 13.15939 18.01546 2.827665 -18.99417 -5.381533 -95.33729 13.78542 34.25468 0 0 -6.622071 3.169685 10.40577 9.575454
372.3333 97.08953 3061.293 2.041983 -7.587834 7.276723 1.550188 16.0735 2.627711 -0 29.37367 -0 -2.052093 -6.975882 -1.967456 -0.7519318 -20.18198 -4.950907 -0 16.75705 -0 -3.471812 -7.998293 18.7557 0.4176442 -1.952008 9.332966 -1.595375 15.04493 -3.364687 1.617534 20.71845 3.249324 1.03072 -18.67404 5.124667 -1.899343 -28.44217 12.51507 85.90828 17.65475 -5.624452 -0 0 27.57332 -28.74037 13.19134 17.97853 2.832957 -18.93829 -5.343809 -95.1872 14.02096 33.97511 0 0 -6.887797 2.893983 10.1457 9.92708
